<svg width="136.47999877929686px" height="124.439990234375px" xmlns="http://www.w3.org/2000/svg" viewBox="181.76000061035157 12.780004882812499 136.47999877929686 124.439990234375" style="background: none;" preserveAspectRatio="xMidYMid"><defs><linearGradient id="editing-gradient-gradient" x1="0" x2="1" y1="0.5" y2="0.5" gradientUnits="objectBoundingBox"><stop offset="0" stop-color="#f0f"></stop><stop offset="1" stop-color="#0ff"></stop></linearGradient></defs><g><g transform="translate(209.6858909726143, 96.76000022888184)"><path d="M26.11-42.69L26.11-42.69L26.11-42.69Q41.79-42.69 41.79-31.62L41.79-31.62L41.79-31.62Q41.79-25.54 37.89-21.89L37.89-21.89L37.89-21.89Q34.05-18.24 27.33-18.24L27.33-18.24L27.33-18.24Q24.19-18.24 21.76-20.03L21.76-20.03L21.76-20.03Q20.61-20.80 19.84-21.82L19.84-21.82L19.84-21.82Q24.51-21.82 26.98-24.67L26.98-24.67L26.98-24.67Q29.44-27.52 29.44-33.09L29.44-33.09L29.44-33.09Q29.44-38.66 23.94-38.66L23.94-38.66L22.40-38.66L22.40-38.66Q22.02-38.66 21.70-38.59L21.70-38.59L14.34 0L0.45 0L8.32-41.92L8.32-41.92Q15.17-42.56 19.14-42.62L19.14-42.62L19.14-42.62Q23.10-42.69 26.11-42.69ZM43.71-39.68L43.71-39.68L43.71-39.68Q45.57-43.52 50.72-43.52L50.72-43.52L50.72-43.52Q55.87-43.52 58.27-40.54L58.27-40.54L58.27-40.54Q60.67-37.57 60.67-30.72L60.67-30.72L60.67-7.87L76.22-42.18L83.84-42.18L63.94 0L48.96 0L47.04-30.72L47.04-30.72Q46.85-34.11 45.92-36.42L45.92-36.42L45.92-36.42Q44.99-38.72 43.71-39.68Z" fill="url(#editing-gradient-gradient)"></path></g></g><style>text {
  font-size: 64px;
  font-family: Arial Black;
  dominant-baseline: central;
  text-anchor: middle;
}</style></svg>